<?xml version="1.0" encoding="UTF-8"?>
<svg id="Imagens" xmlns="http://www.w3.org/2000/svg" viewBox="0 0 83.07 101.68">
  <defs>
    <style>
      .cls-1 {
        fill: #3b7f7c;
        stroke-width: 0px;
      }
    </style>
  </defs>
  <path class="cls-1" d="M41.54,101.68l-.86-.31C15.58,92.28,0,75.17,0,56.71V16.85L41.54.02l25.58,10.36c1.3.53,1.92,2,1.4,3.3-.52,1.3-2,1.92-3.3,1.4l-23.68-9.59L5.07,20.26v36.45c0,16.06,13.95,31.17,36.47,39.57,22.52-8.41,36.47-23.51,36.47-39.57v-23.01c0-1.4,1.13-2.54,2.54-2.54s2.54,1.14,2.54,2.54v23.01c0,18.46-15.58,35.57-40.67,44.66l-.86.31Z"/>
  <path class="cls-1" d="M37.41,63.8c-1.17,0-2.25-.53-2.96-1.46l-7.31-9.54c-.85-1.11-.64-2.7.47-3.55,1.11-.85,2.7-.64,3.55.47l6.24,8.15,14.5-18.92c.85-1.11,2.44-1.32,3.55-.47,1.11.85,1.32,2.44.47,3.55l-15.57,20.32c-.71.93-1.79,1.46-2.96,1.46Z"/>
  <circle class="cls-1" cx="80.36" cy="18.72" r="2.47"/>
</svg>