<?xml version="1.0" encoding="UTF-8"?>
<svg id="Imagens" xmlns="http://www.w3.org/2000/svg" viewBox="0 0 111.96 107.41">
  <defs>
    <style>
      .cls-1 {
        fill: #fff;
        stroke-width: 0px;
      }
    </style>
  </defs>
  <g>
    <path class="cls-1" d="M40.93,80.42c-.45,0-.9-.11-1.32-.35l-24.2-13.97c-.82-.47-1.32-1.35-1.32-2.29s.5-1.82,1.32-2.29l24.2-13.97c1.27-.73,2.88-.3,3.61.97s.3,2.88-.97,3.61l-20.23,11.68,20.23,11.68c1.27.73,1.7,2.35.97,3.61-.49.85-1.38,1.32-2.29,1.32Z"/>
    <path class="cls-1" d="M71.14,80.42c-.91,0-1.8-.47-2.29-1.32-.73-1.27-.3-2.88.97-3.61l20.24-11.68-20.24-11.68c-1.27-.73-1.7-2.35-.97-3.61.73-1.27,2.35-1.7,3.61-.97l24.2,13.97c.82.47,1.32,1.35,1.32,2.29s-.5,1.82-1.32,2.29l-24.2,13.97c-.42.24-.87.35-1.32.35Z"/>
    <path class="cls-1" d="M48.35,81.34c-.41,0-.82-.09-1.21-.29-1.3-.67-1.81-2.27-1.14-3.56l15.36-29.79c.67-1.3,2.26-1.81,3.56-1.14,1.3.67,1.81,2.27,1.14,3.56l-15.36,29.79c-.47.91-1.4,1.43-2.35,1.43Z"/>
  </g>
  <path class="cls-1" d="M102.07,0H10C4.48,0,0,4.48,0,10v86.08c0,6.25,5.42,11.34,12.08,11.34h87.92c6.66,0,12.08-5.09,12.08-11.34V10c0-5.52-4.48-10-10-10ZM48.31,5.94c3.48,0,6.29,2.82,6.29,6.29s-2.82,6.29-6.29,6.29-6.29-2.82-6.29-6.29,2.82-6.29,6.29-6.29ZM31.08,5.94c3.48,0,6.29,2.82,6.29,6.29s-2.82,6.29-6.29,6.29-6.29-2.82-6.29-6.29,2.82-6.29,6.29-6.29ZM13.85,5.94c3.48,0,6.29,2.82,6.29,6.29s-2.82,6.29-6.29,6.29-6.29-2.82-6.29-6.29,2.82-6.29,6.29-6.29ZM107.02,96.08c0,3.64-3.15,6.59-7.02,6.59H12.08c-3.87,0-7.02-2.96-7.02-6.59V29.21h101.96v66.87Z"/>
</svg>