<?xml version="1.0" encoding="UTF-8"?>
<svg id="Layer_1" data-name="Layer 1" xmlns="http://www.w3.org/2000/svg" viewBox="0 0 91.94 92.58">
  <defs>
    <style>
      .cls-1 {
        fill: #fff;
        stroke-width: 0px;
      }
    </style>
  </defs>
  <path class="cls-1" d="M86.66,52.59c-1.21-.25-2.41.52-2.67,1.74-3.76,17.86-19.75,30.82-38.02,30.82-21.43,0-38.86-17.43-38.86-38.86S24.54,7.43,45.97,7.43c18.28,0,34.27,12.96,38.02,30.82.26,1.22,1.45,1.99,2.67,1.74,1.22-.26,1.99-1.45,1.74-2.67C84.2,17.4,66.36,2.93,45.97,2.93,22.06,2.93,2.61,22.38,2.61,46.29s19.45,43.36,43.36,43.36c20.39,0,38.24-14.46,42.43-34.39.26-1.22-.52-2.41-1.74-2.67Z"/>
  <path class="cls-1" d="M65.7,46.22c0-.05,0-.1,0-.15,0-.05-.01-.11-.02-.16,0-.05-.01-.09-.03-.13-.01-.04-.02-.09-.04-.13-.02-.05-.03-.1-.05-.15-.02-.05-.03-.09-.05-.13-.02-.04-.04-.07-.06-.11-.03-.05-.05-.1-.08-.15-.03-.04-.06-.09-.09-.13-.01-.02-.02-.04-.03-.05l-10.38-13.53c-.76-.99-2.17-1.17-3.15-.42-.99.76-1.17,2.17-.42,3.15l7.6,9.91h-30.41c-1.24,0-2.25,1.01-2.25,2.25s1.01,2.25,2.25,2.25h30.41l-7.6,9.91c-.76.99-.57,2.4.42,3.15.41.31.89.46,1.37.46.68,0,1.34-.3,1.79-.88l10.38-13.53s.02-.04.03-.05c.03-.04.06-.09.09-.13.03-.05.06-.09.08-.14.02-.04.04-.07.06-.11.02-.04.04-.09.05-.14.02-.05.04-.1.05-.15.01-.04.03-.09.04-.13.01-.04.02-.09.03-.13,0-.05.02-.1.02-.16,0-.05,0-.1.01-.15,0-.02,0-.04,0-.07s0-.04,0-.07Z"/>
  <path class="cls-1" d="M87.08,44.04c-1.24,0-2.25,1.01-2.25,2.25s1.01,2.25,2.25,2.25,2.25-1.01,2.25-2.25-1.01-2.25-2.25-2.25Z"/>
</svg>