<?xml version="1.0" encoding="UTF-8"?>
<svg id="Layer_1" data-name="Layer 1" xmlns="http://www.w3.org/2000/svg" viewBox="0 0 117.83 89.69">
  <defs>
    <style>
      .cls-1 {
        fill: #fff;
        stroke-width: 0px;
      }
    </style>
  </defs>
  <g>
    <circle class="cls-1" cx="34.95" cy="38.09" r="8.35"/>
    <circle class="cls-1" cx="58.91" cy="38.09" r="8.35"/>
    <circle class="cls-1" cx="82.88" cy="38.09" r="8.35"/>
  </g>
  <path class="cls-1" d="M108.76,89.58c-1.55,0-3.11-.41-4.52-1.22l-17.85-10.29c-1.48-.85-3.17-1.3-4.88-1.3H19.8c-10.92,0-19.8-8.88-19.8-19.8V19.8C0,8.88,8.88,0,19.8,0h78.23c10.92,0,19.8,8.88,19.8,19.8v60.7c0,3.27-1.69,6.21-4.53,7.85-1.42.82-2.98,1.23-4.54,1.23ZM19.8,6.27c-7.46,0-13.52,6.07-13.52,13.53v37.16c0,7.46,6.07,13.53,13.52,13.53h61.71c2.81,0,5.58.74,8.01,2.14l17.85,10.28c1.26.72,2.37.24,2.79,0,.42-.24,1.39-.96,1.39-2.42V19.8c0-7.46-6.07-13.53-13.52-13.53H19.8Z"/>
</svg>