<?xml version="1.0" encoding="UTF-8"?>
<svg id="Imagens" xmlns="http://www.w3.org/2000/svg" viewBox="0 0 111.96 107.41">
  <defs>
    <style>
      .cls-1 {
        fill-rule: evenodd;
      }

      .cls-1, .cls-2 {
        fill: #fff;
        stroke-width: 0px;
      }
    </style>
  </defs>
  <path class="cls-2" d="M102.02,0H9.95C4.42,0-.05,4.48-.05,10v86.08c0,6.25,5.42,11.34,12.08,11.34h87.92c6.66,0,12.08-5.09,12.08-11.34V10c0-5.52-4.48-10-10-10ZM48.26,5.94c3.48,0,6.29,2.82,6.29,6.29s-2.82,6.29-6.29,6.29-6.29-2.82-6.29-6.29,2.82-6.29,6.29-6.29ZM31.03,5.94c3.48,0,6.29,2.82,6.29,6.29s-2.82,6.29-6.29,6.29-6.29-2.82-6.29-6.29,2.82-6.29,6.29-6.29ZM13.8,5.94c3.48,0,6.29,2.82,6.29,6.29s-2.82,6.29-6.29,6.29-6.29-2.82-6.29-6.29,2.82-6.29,6.29-6.29ZM106.96,96.08c0,3.64-3.15,6.59-7.02,6.59H12.02c-3.87,0-7.02-2.96-7.02-6.59V29.21h101.96v66.87Z"/>
  <g>
    <path class="cls-1" d="M65,94.07h-18.03c-.19,0-.34-.15-.34-.34v-4.09c0-2.66,2.15-4.81,4.81-4.81h9.1c2.66,0,4.81,2.15,4.81,4.81v4.09c0,.19-.15.34-.34.34Z"/>
    <path class="cls-1" d="M75.81,69.3l-9.36-16.22-8.09-14.02c-.37-.64-.93-1.06-1.55-1.25v25.29c1.71.4,2.96,1.99,2.81,3.85s-1.6,3.22-3.39,3.33c-2.12.14-3.89-1.54-3.89-3.64,0-1.73,1.2-3.18,2.82-3.55v-25.29c-.62.19-1.19.61-1.55,1.25l-8.09,14.02-9.36,16.22c-.65,1.12-.42,2.54.54,3.41l8.83,7.99h0c1.37,1.24,3.16,1.93,5.02,1.93h10.91c1.85,0,3.64-.69,5.02-1.93h0s8.83-7.99,8.83-7.99c.96-.87,1.18-2.29.54-3.41Z"/>
  </g>
</svg>