<?xml version="1.0" encoding="UTF-8"?>
<svg id="Imagens" xmlns="http://www.w3.org/2000/svg" viewBox="0 0 111.96 107.41">
  <defs>
    <style>
      .cls-1 {
        fill: #fff;
        stroke-width: 0px;
      }
    </style>
  </defs>
  <path class="cls-1" d="M102.02,0H9.95C4.42,0-.05,4.48-.05,10v86.08c0,6.25,5.42,11.34,12.08,11.34h87.92c6.66,0,12.08-5.09,12.08-11.34V10c0-5.52-4.48-10-10-10ZM48.26,5.94c3.48,0,6.29,2.82,6.29,6.29s-2.82,6.29-6.29,6.29-6.29-2.82-6.29-6.29,2.82-6.29,6.29-6.29ZM31.03,5.94c3.48,0,6.29,2.82,6.29,6.29s-2.82,6.29-6.29,6.29-6.29-2.82-6.29-6.29,2.82-6.29,6.29-6.29ZM13.8,5.94c3.48,0,6.29,2.82,6.29,6.29s-2.82,6.29-6.29,6.29-6.29-2.82-6.29-6.29,2.82-6.29,6.29-6.29ZM106.96,96.08c0,3.64-3.15,6.59-7.02,6.59H12.02c-3.87,0-7.02-2.96-7.02-6.59V29.21h101.96v66.87Z"/>
  <path class="cls-1" d="M83.55,64.52c-1.09,0-2.13.17-3.11.47-.89-4.86-5.14-8.55-10.26-8.55-.59,0-1.17.06-1.74.16-1.13-5.76-6.2-10.1-12.29-10.1s-11.21,4.39-12.3,10.19c-.51-.08-1.03-.13-1.57-.13-5.22,0-9.53,3.88-10.22,8.92-1.17-.46-2.44-.72-3.78-.72-5.7,0-10.32,4.62-10.32,10.32s4.62,10.32,10.32,10.32h55.26c5.76,0,10.44-4.67,10.44-10.44s-4.67-10.44-10.44-10.44Z"/>
</svg>