<?xml version="1.0" encoding="UTF-8"?>
<svg id="Imagens" xmlns="http://www.w3.org/2000/svg" viewBox="0 0 185.97 54.59">
  <defs>
    <style>
      .cls-1 {
        fill: #022728;
        stroke-width: 0px;
      }
    </style>
  </defs>
  <g>
    <path class="cls-1" d="M49.03,15.35h0s-14.67,14.69-14.67,14.69c.24-.87.37-1.8.37-2.75,0-5.65-4.58-10.24-10.22-10.24-.95,0-1.87.13-2.74.37l2.08-2.08H0C4.42,6.26,13.74,0,24.52,0c4.28,0,8.32.99,11.92,2.74,5.48,2.67,9.92,7.12,12.59,12.61Z"/>
    <path class="cls-1" d="M49.03,39.23c-4.42,9.09-13.74,15.35-24.52,15.35-4.28,0-8.32-.99-11.93-2.75-5.48-2.67-9.92-7.13-12.59-12.61l14.67-14.69c-.24.87-.37,1.8-.37,2.75,0,5.65,4.58,10.23,10.22,10.23.95,0,1.87-.13,2.74-.37l-2.08,2.08h23.85Z"/>
    <line class="cls-1" x1="49.04" y1="15.35" x2="49.03" y2="15.35"/>
  </g>
  <g>
    <path class="cls-1" d="M58.47,26.94v-5.93c0-.38.05-.77.38-1.04l11.31-11.64h-10.71c-.49,0-.82-.33-.82-.82V1.8c0-.49.33-.88.82-.88h20.15c.49,0,.82.38.82.88v5.93c0,.38-.11.77-.38,1.04l-11.36,11.64h10.92c.49,0,.88.33.88.82v5.71c0,.49-.38.88-.88.88h-20.31c-.49,0-.82-.38-.82-.88Z"/>
    <path class="cls-1" d="M83.63,14.24c0-7.66,6.15-13.62,13.62-13.62s13.62,5.96,13.62,13.62-6.15,13.58-13.62,13.58-13.62-5.96-13.62-13.58ZM97.25,21.37c3.96,0,6.94-3.06,6.94-7.13s-2.98-7.17-6.94-7.17-6.98,3.06-6.98,7.17,3.02,7.13,6.98,7.13Z"/>
    <path class="cls-1" d="M114.01,26.73V1.52c0-.34.23-.6.57-.6h5.4c.34,0,.6.26.6.6v10h8.41V1.52c0-.34.26-.6.6-.6h5.4c.34,0,.57.26.57.6v25.2c0,.34-.23.6-.57.6h-5.4c-.34,0-.6-.26-.6-.6v-9.43h-8.41v9.43c0,.34-.26.6-.6.6h-5.4c-.34,0-.57-.26-.57-.6Z"/>
    <path class="cls-1" d="M138.74,26.69l8.68-25.32c.11-.3.42-.45.72-.45h5.7c.3,0,.64.15.75.45l8.68,25.32c.15.38-.08.64-.49.64h-5.62c-.3,0-.57-.11-.68-.45l-.98-3.17h-9.02l-.98,3.17c-.11.34-.34.45-.64.45h-5.62c-.42,0-.64-.26-.49-.64ZM153.68,17.9l-2.68-8.64-2.72,8.64h5.4Z"/>
    <path class="cls-1" d="M179.06,26.95l-5.21-8.53h-.83v8.3c0,.34-.26.6-.6.6h-5.4c-.34,0-.57-.26-.57-.6V1.52c0-.34.23-.6.57-.6h8.3c6.49,0,9.55,3.55,9.55,8.75,0,3.66-1.51,6.53-4.72,7.89l5.7,9.09c.26.41.08.68-.38.68h-5.73c-.3,0-.53-.11-.68-.38ZM175.17,12.62c1.74,0,3.43-.45,3.43-2.94s-1.7-2.94-3.43-2.94h-2.15v5.89h2.15Z"/>
  </g>
  <g>
    <path class="cls-1" d="M58.51,50.88c-.15-.24-.15-.42.06-.65l.51-.56c.24-.27.51-.15.68.06,1.04,1.46,2.5,2.5,4.85,2.5,2.85,0,4.49-1.55,4.49-3.86s-1.78-3.45-4.01-4.52l-2.53-1.25c-2.2-1.04-3.57-2.62-3.57-4.96,0-3.12,2.5-5.08,5.65-5.08,2.38,0,4.16,1.01,5.44,2.62.27.33.21.48,0,.71l-.45.51c-.27.3-.51.24-.74-.03-1.13-1.34-2.38-2.08-4.19-2.08-2.17,0-3.89,1.1-3.89,3.3,0,1.61.89,2.68,2.79,3.6l2.5,1.22c2.47,1.22,4.82,2.68,4.82,5.95s-2.56,5.62-6.33,5.62c-2.97,0-4.93-1.37-6.06-3.06Z"/>
    <path class="cls-1" d="M75.28,53.17v-19.98c0-.27.15-.42.42-.42h9.84c.27,0,.42.15.42.42v.86c0,.27-.15.39-.42.39h-8.41v7.52h8c.27,0,.39.15.39.42v.86c0,.27-.12.42-.39.42h-8v8.23h8.44c.27,0,.42.15.42.42v.86c0,.27-.15.42-.42.42h-9.87c-.27,0-.42-.15-.42-.42Z"/>
    <path class="cls-1" d="M89.64,43.27c0-5.98,4.43-10.73,10.61-10.73,2.79,0,5.08.95,7.02,2.76.21.18.21.33.06.48l-.74.86c-.12.15-.3.15-.45,0-1.69-1.46-3.66-2.29-5.89-2.29-4.96,0-8.74,3.81-8.74,8.92s3.78,8.89,8.77,8.89c4.61,0,7.82-3.12,7.76-7.49h-7.43c-.27,0-.42-.12-.42-.39v-.92c0-.27.15-.39.42-.39h8.83c.27,0,.45.18.45.45v.74c0,5.56-3.69,9.81-9.6,9.81-6.21,0-10.64-4.73-10.64-10.7Z"/>
    <path class="cls-1" d="M114.13,46.93v-13.73c0-.27.15-.42.42-.42h1.04c.27,0,.39.15.39.42v13.47c0,3.81,2.08,5.5,4.93,5.5s4.9-1.69,4.9-5.5v-13.47c0-.27.15-.42.42-.42h1.04c.27,0,.42.15.42.42v13.73c0,4.52-2.74,7.05-6.78,7.05s-6.78-2.53-6.78-7.05Z"/>
    <path class="cls-1" d="M143.5,53.29l-5.14-7.7h-3.69v7.58c0,.27-.12.42-.39.42h-1.04c-.27,0-.42-.15-.42-.42v-19.98c0-.27.15-.42.42-.42h5.56c4.43,0,6.78,2.68,6.78,6.42,0,3.27-1.81,5.74-5.29,6.27l5.14,7.58c.21.33.06.54-.3.54h-1.1c-.24,0-.42-.09-.54-.3ZM138.62,43.92c2.88,0,5.11-1.28,5.11-4.73s-2.23-4.76-5.11-4.76h-3.95v9.48h3.95Z"/>
    <path class="cls-1" d="M148.73,43.27c0-6.03,4.64-10.73,10.61-10.73s10.64,4.7,10.64,10.73-4.64,10.7-10.64,10.7-10.61-4.7-10.61-10.7ZM159.34,52.16c4.99,0,8.77-3.81,8.77-8.89s-3.78-8.92-8.77-8.92-8.74,3.81-8.74,8.92,3.78,8.89,8.74,8.89Z"/>
    <path class="cls-1" d="M173.58,50.88c-.15-.24-.15-.42.06-.65l.51-.56c.24-.27.51-.15.68.06,1.04,1.46,2.5,2.5,4.85,2.5,2.85,0,4.49-1.55,4.49-3.86s-1.78-3.45-4.01-4.52l-2.53-1.25c-2.2-1.04-3.57-2.62-3.57-4.96,0-3.12,2.5-5.08,5.65-5.08,2.38,0,4.16,1.01,5.44,2.62.27.33.21.48,0,.71l-.45.51c-.27.3-.51.24-.74-.03-1.13-1.34-2.38-2.08-4.19-2.08-2.17,0-3.89,1.1-3.89,3.3,0,1.61.89,2.68,2.79,3.6l2.5,1.22c2.47,1.22,4.82,2.68,4.82,5.95s-2.56,5.62-6.33,5.62c-2.97,0-4.93-1.37-6.06-3.06Z"/>
  </g>
</svg>