<?xml version="1.0" encoding="UTF-8"?>
<svg id="Layer_1" data-name="Layer 1" xmlns="http://www.w3.org/2000/svg" viewBox="0 0 138.52 40.7">
  <defs>
    <style>
      .cls-1 {
        fill: #fff;
        stroke-width: 0px;
      }
    </style>
  </defs>
  <g>
    <path class="cls-1" d="M36.53,11.47h0s-10.93,10.94-10.93,10.94c.18-.65.28-1.34.28-2.05,0-4.21-3.41-7.63-7.61-7.63-.71,0-1.39.1-2.04.28l1.55-1.55H0C3.3,4.69,10.24.03,18.26.03c3.18,0,6.2.73,8.88,2.04,4.08,1.99,7.39,5.31,9.38,9.39Z"/>
    <path class="cls-1" d="M36.53,29.26c-3.29,6.77-10.23,11.44-18.26,11.44-3.19,0-6.2-.73-8.88-2.05-4.08-1.99-7.39-5.31-9.38-9.39l10.93-10.94c-.18.65-.28,1.34-.28,2.05,0,4.21,3.41,7.62,7.61,7.62.71,0,1.39-.1,2.04-.28l-1.55,1.55h17.77Z"/>
    <line class="cls-1" x1="36.53" y1="11.47" x2="36.53" y2="11.47"/>
  </g>
  <g>
    <path class="cls-1" d="M43.55,20.1v-4.42c0-.29.04-.57.29-.78l8.42-8.67h-7.97c-.37,0-.61-.25-.61-.61V1.37c0-.37.25-.65.61-.65h15.01c.37,0,.61.29.61.65v4.42c0,.29-.08.57-.29.78l-8.47,8.67h8.14c.37,0,.65.25.65.61v4.25c0,.37-.29.65-.65.65h-15.13c-.37,0-.61-.29-.61-.65Z"/>
    <path class="cls-1" d="M62.3,10.64c0-5.71,4.58-10.15,10.15-10.15s10.15,4.44,10.15,10.15-4.58,10.12-10.15,10.12-10.15-4.44-10.15-10.12ZM72.44,15.95c2.95,0,5.17-2.28,5.17-5.31s-2.22-5.34-5.17-5.34-5.2,2.28-5.2,5.34,2.25,5.31,5.2,5.31Z"/>
    <path class="cls-1" d="M84.93,19.94V1.16c0-.25.17-.45.42-.45h4.02c.25,0,.45.2.45.45v7.45h6.27V1.16c0-.25.2-.45.45-.45h4.02c.25,0,.42.2.42.45v18.77c0,.25-.17.45-.42.45h-4.02c-.25,0-.45-.2-.45-.45v-7.03h-6.27v7.03c0,.25-.2.45-.45.45h-4.02c-.25,0-.42-.2-.42-.45Z"/>
    <path class="cls-1" d="M103.36,19.91l6.46-18.86c.08-.23.31-.34.53-.34h4.24c.22,0,.48.11.56.34l6.46,18.86c.11.28-.06.48-.37.48h-4.19c-.22,0-.42-.08-.51-.34l-.73-2.36h-6.72l-.73,2.36c-.08.25-.25.34-.48.34h-4.19c-.31,0-.48-.2-.37-.48ZM114.49,13.36l-2-6.44-2.02,6.44h4.02Z"/>
    <path class="cls-1" d="M133.39,20.11l-3.88-6.35h-.62v6.18c0,.25-.2.45-.45.45h-4.02c-.25,0-.42-.2-.42-.45V1.16c0-.25.17-.45.42-.45h6.18c4.83,0,7.11,2.64,7.11,6.52,0,2.73-1.12,4.86-3.51,5.87l4.24,6.77c.2.31.06.51-.28.51h-4.27c-.22,0-.39-.08-.51-.28ZM130.49,9.43c1.29,0,2.56-.34,2.56-2.19s-1.26-2.19-2.56-2.19h-1.6v4.38h1.6Z"/>
  </g>
  <g>
    <path class="cls-1" d="M43.59,37.93c-.11-.18-.11-.31.04-.49l.38-.42c.18-.2.38-.11.51.04.77,1.09,1.86,1.86,3.61,1.86,2.13,0,3.34-1.15,3.34-2.88s-1.33-2.57-2.99-3.37l-1.88-.93c-1.64-.78-2.66-1.95-2.66-3.7,0-2.33,1.86-3.79,4.21-3.79,1.77,0,3.1.75,4.05,1.95.2.24.15.35,0,.53l-.33.38c-.2.22-.38.18-.55-.02-.84-1-1.77-1.55-3.12-1.55-1.62,0-2.9.82-2.9,2.46,0,1.2.66,1.99,2.08,2.68l1.86.91c1.84.91,3.59,1.99,3.59,4.43s-1.9,4.19-4.72,4.19c-2.21,0-3.68-1.02-4.52-2.28Z"/>
    <path class="cls-1" d="M56.08,39.64v-14.88c0-.2.11-.31.31-.31h7.33c.2,0,.31.11.31.31v.64c0,.2-.11.29-.31.29h-6.27v5.6h5.96c.2,0,.29.11.29.31v.64c0,.2-.09.31-.29.31h-5.96v6.13h6.29c.2,0,.31.11.31.31v.64c0,.2-.11.31-.31.31h-7.35c-.2,0-.31-.11-.31-.31Z"/>
    <path class="cls-1" d="M66.77,32.26c0-4.45,3.3-7.99,7.91-7.99,2.08,0,3.79.71,5.23,2.06.15.13.15.24.04.35l-.55.64c-.09.11-.22.11-.33,0-1.26-1.09-2.72-1.71-4.38-1.71-3.7,0-6.51,2.83-6.51,6.64s2.81,6.62,6.53,6.62c3.43,0,5.82-2.33,5.78-5.58h-5.54c-.2,0-.31-.09-.31-.29v-.69c0-.2.11-.29.31-.29h6.58c.2,0,.33.13.33.33v.55c0,4.14-2.75,7.31-7.15,7.31-4.63,0-7.93-3.52-7.93-7.97Z"/>
    <path class="cls-1" d="M85.02,34.99v-10.23c0-.2.11-.31.31-.31h.77c.2,0,.29.11.29.31v10.03c0,2.83,1.55,4.1,3.68,4.1s3.65-1.26,3.65-4.1v-10.03c0-.2.11-.31.31-.31h.78c.2,0,.31.11.31.31v10.23c0,3.37-2.04,5.25-5.05,5.25s-5.05-1.88-5.05-5.25Z"/>
    <path class="cls-1" d="M106.9,39.73l-3.83-5.74h-2.75v5.65c0,.2-.09.31-.29.31h-.77c-.2,0-.31-.11-.31-.31v-14.88c0-.2.11-.31.31-.31h4.14c3.3,0,5.05,1.99,5.05,4.78,0,2.44-1.35,4.27-3.94,4.67l3.83,5.65c.16.24.04.4-.22.4h-.82c-.18,0-.31-.07-.4-.22ZM103.26,32.75c2.15,0,3.81-.95,3.81-3.52s-1.66-3.54-3.81-3.54h-2.95v7.06h2.95Z"/>
    <path class="cls-1" d="M110.79,32.26c0-4.5,3.45-7.99,7.91-7.99s7.93,3.5,7.93,7.99-3.45,7.97-7.93,7.97-7.91-3.5-7.91-7.97ZM118.7,38.88c3.72,0,6.53-2.83,6.53-6.62s-2.81-6.64-6.53-6.64-6.51,2.83-6.51,6.64,2.81,6.62,6.51,6.62Z"/>
    <path class="cls-1" d="M129.3,37.93c-.11-.18-.11-.31.04-.49l.38-.42c.18-.2.38-.11.51.04.77,1.09,1.86,1.86,3.61,1.86,2.13,0,3.34-1.15,3.34-2.88s-1.33-2.57-2.99-3.37l-1.88-.93c-1.64-.78-2.66-1.95-2.66-3.7,0-2.33,1.86-3.79,4.21-3.79,1.77,0,3.1.75,4.05,1.95.2.24.15.35,0,.53l-.33.38c-.2.22-.38.18-.55-.02-.84-1-1.77-1.55-3.12-1.55-1.62,0-2.9.82-2.9,2.46,0,1.2.66,1.99,2.08,2.68l1.86.91c1.84.91,3.59,1.99,3.59,4.43s-1.9,4.19-4.72,4.19c-2.21,0-3.68-1.02-4.52-2.28Z"/>
  </g>
</svg>