<?xml version="1.0" encoding="UTF-8"?>
<svg id="Logo" xmlns="http://www.w3.org/2000/svg" viewBox="0 0 498.15 198.55">
  <defs>
    <style>
      .cls-1 {
        fill: #fff;
        stroke-width: 0px;
      }
    </style>
  </defs>
  <g>
    <path class="cls-1" d="M167.24,59.57h0s-48.76,48.84-48.76,48.84c.81-2.9,1.24-5.97,1.24-9.13,0-18.79-15.21-34.03-33.98-34.03-3.16,0-6.22.43-9.12,1.24l6.9-6.91H4.22C18.93,29.35,49.91,8.53,85.73,8.53c14.21,0,27.67,3.28,39.64,9.12,18.2,8.88,32.99,23.69,41.86,41.92Z"/>
    <path class="cls-1" d="M167.24,138.97c-14.7,30.22-45.67,51.05-81.51,51.05-14.22,0-27.67-3.28-39.65-9.13-18.21-8.88-32.99-23.69-41.86-41.92l48.77-48.84c-.81,2.9-1.24,5.97-1.24,9.14,0,18.79,15.21,34.03,33.98,34.03,3.16,0,6.22-.43,9.12-1.24l-6.91,6.91h79.29Z"/>
    <line class="cls-1" x1="167.24" y1="59.57" x2="167.24" y2="59.58"/>
  </g>
  <g>
    <g>
      <path class="cls-1" d="M189.95,71.17v-14.27c0-.93.13-1.85.92-2.51l27.22-28.01h-25.77c-1.19,0-1.98-.79-1.98-1.98v-13.74c0-1.19.79-2.11,1.98-2.11h48.5c1.19,0,1.98.92,1.98,2.11v14.27c0,.93-.26,1.85-.92,2.51l-27.35,28.01h26.3c1.19,0,2.11.79,2.11,1.98v13.74c0,1.19-.93,2.11-2.11,2.11h-48.89c-1.19,0-1.98-.93-1.98-2.11Z"/>
      <path class="cls-1" d="M250.5,40.59c0-18.44,14.8-32.78,32.78-32.78s32.78,14.35,32.78,32.78-14.8,32.69-32.78,32.69-32.78-14.35-32.78-32.69ZM283.28,57.75c9.54,0,16.71-7.36,16.71-17.16s-7.17-17.25-16.71-17.25-16.8,7.36-16.8,17.25,7.26,17.16,16.8,17.16Z"/>
      <path class="cls-1" d="M323.63,70.65V9.99c0-.82.54-1.45,1.36-1.45h12.99c.82,0,1.45.63,1.45,1.45v24.06h20.25V9.99c0-.82.64-1.45,1.45-1.45h12.99c.82,0,1.36.63,1.36,1.45v60.66c0,.82-.54,1.45-1.36,1.45h-12.99c-.82,0-1.45-.64-1.45-1.45v-22.7h-20.25v22.7c0,.82-.64,1.45-1.45,1.45h-12.99c-.82,0-1.36-.64-1.36-1.45Z"/>
      <path class="cls-1" d="M383.17,70.56l20.89-60.93c.27-.73,1-1.09,1.73-1.09h13.71c.73,0,1.54.36,1.82,1.09l20.89,60.93c.36.91-.18,1.54-1.18,1.54h-13.53c-.73,0-1.36-.27-1.63-1.09l-2.36-7.63h-21.7l-2.36,7.63c-.27.82-.82,1.09-1.54,1.09h-13.53c-1,0-1.54-.64-1.18-1.54ZM419.13,49.4l-6.45-20.8-6.54,20.8h12.99Z"/>
      <path class="cls-1" d="M480.2,71.19l-12.53-20.52h-2v19.98c0,.82-.64,1.45-1.45,1.45h-12.99c-.82,0-1.36-.64-1.36-1.45V9.99c0-.82.54-1.45,1.36-1.45h19.98c15.62,0,22.98,8.54,22.98,21.07,0,8.81-3.63,15.71-11.35,18.98l13.71,21.89c.64,1,.18,1.63-.91,1.63h-13.8c-.73,0-1.27-.27-1.63-.91ZM470.85,36.68c4.18,0,8.26-1.09,8.26-7.08s-4.09-7.08-8.26-7.08h-5.18v14.17h5.18Z"/>
    </g>
    <g>
      <path class="cls-1" d="M212.9,186.33v-87.45h-21.18c-1.23,0-1.78-.68-1.78-1.91v-2.46c0-1.23.55-1.91,1.78-1.91h49.05c1.23,0,1.91.68,1.91,1.91v2.46c0,1.23-.68,1.91-1.91,1.91h-21.04v87.45c0,1.23-.68,1.91-1.91,1.91h-3.14c-1.23,0-1.78-.68-1.78-1.91Z"/>
      <path class="cls-1" d="M265.1,186.33v-91.82c0-1.23.55-1.91,1.78-1.91h44.82c1.23,0,1.78.68,1.78,1.91v2.46c0,1.23-.55,1.91-1.78,1.91h-39.76v36.48h37.71c1.23,0,1.91.68,1.91,1.91v2.6c0,1.23-.68,1.78-1.91,1.78h-37.71v40.31h39.9c1.23,0,1.91.68,1.91,1.91v2.46c0,1.23-.68,1.91-1.91,1.91h-44.95c-1.23,0-1.78-.68-1.78-1.91Z"/>
      <path class="cls-1" d="M331.37,140.83c0-27.47,19.68-49.33,48.23-49.33,13.25,0,23.37,4.51,31.84,11.75.96.96,1.78,1.91.55,3.28l-1.78,2.05c-.96.96-1.64.96-3.01,0-7.51-6.56-16.26-10.38-27.33-10.38-23.78,0-41.68,18.04-41.68,42.63s17.9,42.5,41.68,42.5c11.07,0,19.81-3.83,27.33-10.38,1.37-1.23,2.05-.96,2.87-.27l1.91,2.32c1.5,1.23.41,2.19-.55,3.14-8.47,7.38-18.58,11.89-31.84,11.89-28.56,0-48.23-21.73-48.23-49.19Z"/>
      <path class="cls-1" d="M434.39,186.33v-91.82c0-1.23.55-1.91,1.78-1.91h3.14c1.23,0,1.91.68,1.91,1.91v43.04h48.78v-43.04c0-1.23.68-1.91,1.91-1.91h3.14c1.23,0,1.78.68,1.78,1.91v91.82c0,1.23-.55,1.91-1.78,1.91h-3.14c-1.23,0-1.91-.68-1.91-1.91v-42.63h-48.78v42.63c0,1.23-.68,1.91-1.91,1.91h-3.14c-1.23,0-1.78-.68-1.78-1.91Z"/>
    </g>
  </g>
</svg>